<!-- Generated by IcoMoon.io -->
<svg version="1.1" xmlns="http://www.w3.org/2000/svg" width="32" height="32" viewBox="0 0 32 32">
<path d="M6.857 2.286v4.571h-4.571v-4.571h4.571zM9.143 29.714v-4.571c0-0.606-0.241-1.188-0.669-1.616s-1.010-0.669-1.616-0.669h-4.571c-0.606 0-1.188 0.241-1.616 0.669s-0.669 1.010-0.669 1.616v4.571c0 0.606 0.241 1.188 0.669 1.616s1.010 0.669 1.616 0.669h4.571c0.606 0 1.188-0.241 1.616-0.669s0.669-1.010 0.669-1.616zM9.143 18.286v-4.571c0-0.606-0.241-1.188-0.669-1.616s-1.010-0.669-1.616-0.669h-4.571c-0.606 0-1.188 0.241-1.616 0.669s-0.669 1.010-0.669 1.616v4.571c0 0.606 0.241 1.188 0.669 1.616s1.010 0.669 1.616 0.669h4.571c0.606 0 1.188-0.241 1.616-0.669s0.669-1.010 0.669-1.616zM9.143 6.857v-4.571c0-0.606-0.241-1.188-0.669-1.616s-1.010-0.669-1.616-0.669h-4.571c-0.606 0-1.188 0.241-1.616 0.669s-0.669 1.010-0.669 1.616v4.571c0 0.606 0.241 1.188 0.669 1.616s1.010 0.669 1.616 0.669h4.571c0.606 0 1.188-0.241 1.616-0.669s0.669-1.010 0.669-1.616zM20.571 29.714v-4.571c0-0.606-0.241-1.188-0.669-1.616s-1.010-0.669-1.616-0.669h-4.571c-0.606 0-1.188 0.241-1.616 0.669s-0.669 1.010-0.669 1.616v4.571c0 0.606 0.241 1.188 0.669 1.616s1.010 0.669 1.616 0.669h4.571c0.606 0 1.188-0.241 1.616-0.669s0.669-1.010 0.669-1.616zM20.571 18.286v-4.571c0-0.606-0.241-1.188-0.669-1.616s-1.010-0.669-1.616-0.669h-4.571c-0.606 0-1.188 0.241-1.616 0.669s-0.669 1.010-0.669 1.616v4.571c0 0.606 0.241 1.188 0.669 1.616s1.010 0.669 1.616 0.669h4.571c0.606 0 1.188-0.241 1.616-0.669s0.669-1.010 0.669-1.616zM20.571 6.857v-4.571c0-0.606-0.241-1.188-0.669-1.616s-1.010-0.669-1.616-0.669h-4.571c-0.606 0-1.188 0.241-1.616 0.669s-0.669 1.010-0.669 1.616v4.571c0 0.606 0.241 1.188 0.669 1.616s1.010 0.669 1.616 0.669h4.571c0.606 0 1.188-0.241 1.616-0.669s0.669-1.010 0.669-1.616zM18.286 2.286v4.571h-4.571v-4.571h4.571zM29.714 2.286v4.571h-4.571v-4.571h4.571zM6.857 13.714v4.571h-4.571v-4.571h4.571zM18.286 13.714v4.571h-4.571v-4.571h4.571zM29.714 13.714h-4.571v4.571h4.571v-4.571zM6.857 25.143v4.571h-4.571v-4.571h4.571zM18.286 25.143v4.571h-4.571v-4.571h4.571zM29.714 25.143v4.571h-4.571v-4.571h4.571zM25.143 0c-0.606 0-1.188 0.241-1.616 0.669s-0.669 1.010-0.669 1.616v4.571c0 0.606 0.241 1.188 0.669 1.616s1.010 0.669 1.616 0.669h4.571c0.606 0 1.188-0.241 1.616-0.669s0.669-1.010 0.669-1.616v-4.571c0-0.606-0.241-1.188-0.669-1.616s-1.010-0.669-1.616-0.669h-4.571zM22.857 13.714c0-0.606 0.241-1.188 0.669-1.616s1.010-0.669 1.616-0.669h4.571c0.606 0 1.188 0.241 1.616 0.669s0.669 1.010 0.669 1.616v4.571c0 0.606-0.241 1.188-0.669 1.616s-1.010 0.669-1.616 0.669h-4.571c-0.606 0-1.188-0.241-1.616-0.669s-0.669-1.010-0.669-1.616v-4.571zM25.143 22.857c-0.606 0-1.188 0.241-1.616 0.669s-0.669 1.010-0.669 1.616v4.571c0 0.606 0.241 1.188 0.669 1.616s1.010 0.669 1.616 0.669h4.571c0.606 0 1.188-0.241 1.616-0.669s0.669-1.010 0.669-1.616v-4.571c0-0.606-0.241-1.188-0.669-1.616s-1.010-0.669-1.616-0.669h-4.571z"></path>
</svg>
