<!-- Generated by IcoMoon.io -->
<svg version="1.1" xmlns="http://www.w3.org/2000/svg" width="32" height="32" viewBox="0 0 32 32">
<path fill="none" stroke-linejoin="round" stroke-linecap="round" stroke-miterlimit="4" stroke-width="2.1333" stroke="#000" d="M27.378 4.089h-22.756c-1.571 0-2.844 1.274-2.844 2.844v15.644c0 1.571 1.273 2.844 2.844 2.844h22.756c1.571 0 2.844-1.273 2.844-2.844v-15.644c0-1.571-1.273-2.844-2.844-2.844z"></path>
<path fill="none" stroke-linejoin="round" stroke-linecap="round" stroke-miterlimit="4" stroke-width="2.1333" stroke="#000" d="M17.422 9.778h-8.533c-0.785 0-1.422 0.637-1.422 1.422v7.111c0 0.785 0.637 1.422 1.422 1.422h8.533c0.785 0 1.422-0.637 1.422-1.422v-7.111c0-0.785-0.637-1.422-1.422-1.422z"></path>
<path fill="none" stroke-linejoin="round" stroke-linecap="round" stroke-miterlimit="4" stroke-width="2.1333" stroke="#000" d="M24.533 9.778v9.956M7.467 25.422v2.844M24.533 25.422v2.844"></path>
</svg>
